PathFileType	4	(X/Y/Z)
DataRate	CameraRate	NumFrames	NumMarkers	Units	OrigDataRate	OrigDataStartFrame	OrigNumFrames	
  120.0	  120.0	    6	     56	     mm	  120.0	      324	    431
Frame#	Time	LASI			RASI			LPSI			RPSI			RTH1			RTH2			RTH3			RLFC			RMFC			LTH1			LTH2			LTH3			LLFC			LMFC			RTB1			RTB2			RTB3			RLMAL			RMMAL			LTB1			LTB2			LTB3			LMMAL			LLMAL			RCAL			RTOE			RMT5			LCAL			LTOE			LMT5			LACR			RACR			CLAV			C7			LASH			LPSH			RASH			RPSH			RUA1			RUA2			RUA3			RLEL			RMEL			LUA1			LUA2			LUA3			LLEL			LMEL			RFAsuperior			RFAradius			RFAulna			LFAsuperior			LFAradius			LFAulna			RHJC			LHJC			
		X1	Y1	Z1	X2	Y2	Z2	X3	Y3	Z3	X4	Y4	Z4	X5	Y5	Z5	X6	Y6	Z6	X7	Y7	Z7	X8	Y8	Z8	X9	Y9	Z9	X10	Y10	Z10	X11	Y11	Z11	X12	Y12	Z12	X13	Y13	Z13	X14	Y14	Z14	X15	Y15	Z15	X16	Y16	Z16	X17	Y17	Z17	X18	Y18	Z18	X19	Y19	Z19	X20	Y20	Z20	X21	Y21	Z21	X22	Y22	Z22	X23	Y23	Z23	X24	Y24	Z24	X25	Y25	Z25	X26	Y26	Z26	X27	Y27	Z27	X28	Y28	Z28	X29	Y29	Z29	X30	Y30	Z30	X31	Y31	Z31	X32	Y32	Z32	X33	Y33	Z33	X34	Y34	Z34	X35	Y35	Z35	X36	Y36	Z36	X37	Y37	Z37	X38	Y38	Z38	X39	Y39	Z39	X40	Y40	Z40	X41	Y41	Z41	X42	Y42	Z42	X43	Y43	Z43	X44	Y44	Z44	X45	Y45	Z45	X46	Y46	Z46	X47	Y47	Z47	X48	Y48	Z48	X49	Y49	Z49	X50	Y50	Z50	X51	Y51	Z51	X52	Y52	Z52	X53	Y53	Z53	X54	Y54	Z54	X55	Y55	Z55	X56	Y56	Z56	

324	2.70000	890.48644	1030.96764	-613.70454	899.14659	1024.28963	-376.79995	731.84645	1056.00416	-541.28328	729.72441	1053.66046	-442.81849	817.67875	871.93933	-301.94855	880.14999	738.43535	-304.13893	797.68980	611.85708	-313.79263	813.78008	516.38507	-304.40182	801.72853	503.42376	-428.80771	828.83389	850.28761	-683.54558	880.34269	740.94687	-683.25109	804.49109	627.32648	-665.56378	822.95813	519.10261	-669.82735	813.84690	504.14714	-551.00405	839.18111	372.05455	-338.96991	792.63730	329.36343	-268.66033	813.06609	253.98376	-322.16913	741.13063	140.20564	-266.92518	775.97933	124.39792	-345.57238	848.51608	393.85074	-627.01927	792.41963	337.03065	-708.79501	819.40967	229.85444	-655.72929	786.15246	122.37309	-627.46931	761.74581	126.22757	-710.18276	690.11053	105.82510	-302.02423	897.22351	73.40839	-315.95435	874.35586	64.04767	-222.68820	703.85819	107.64141	-672.07273	909.41303	77.85772	-661.76393	891.03129	64.15754	-751.87810	789.53690	1494.50279	-658.58099	788.81583	1491.00442	-312.26359	857.62115	1481.82708	-461.92931	732.02360	1528.01003	-490.16516	857.80351	1453.87031	-637.26237	733.67657	1441.35306	-677.60462	852.69364	1459.21143	-336.85971	721.87877	1438.20996	-309.45358	842.31128	1442.85149	-201.91401	815.40316	1385.34155	-175.09982	899.65063	1423.71413	-138.83820	943.14554	1402.36097	-80.26358	946.05870	1321.53202	-99.04381	839.54893	1432.23762	-770.13645	856.77744	1381.63287	-817.31677	931.46151	1423.56758	-805.16431	975.92226	1396.71660	-880.11971	954.84645	1321.42797	-858.76310	1064.95956	1413.87355	-120.93454	1179.67318	1379.48381	-174.87987	1186.22556	1383.41150	-103.98809	1102.80379	1400.44336	-842.35569	1195.78926	1347.82983	-767.43729	1213.52268	1372.96168	-830.08940	808.93742	993.98301	-429.35904	823.09184	979.72123	-556.51929	
325	2.70833	890.45826	1030.97152	-613.70083	899.12023	1024.28301	-376.80194	731.81481	1056.00637	-541.27425	729.69738	1053.62729	-442.82424	817.60951	871.89438	-301.91797	880.14530	738.46453	-304.14376	797.70739	611.94237	-313.66908	813.77942	516.37775	-304.40360	801.72898	503.42459	-428.80469	828.81808	850.29382	-683.55048	880.34426	740.94658	-683.26781	804.48233	627.33199	-665.56954	822.92991	519.07836	-669.78458	813.81592	504.14208	-550.97567	839.17762	372.04326	-338.97303	792.62969	329.34844	-268.66791	813.06117	253.97146	-322.16876	741.14521	140.22011	-266.84774	775.98809	124.40735	-345.60694	848.49722	393.84667	-627.02539	792.40938	337.02879	-708.79947	819.39876	229.84728	-655.71866	786.15468	122.37177	-627.46935	761.73989	126.22016	-710.17456	690.10798	105.82293	-302.01981	897.21944	73.39998	-315.94583	874.35576	64.03315	-222.69070	703.86104	107.63468	-672.08338	909.41271	77.85535	-661.72995	891.02951	64.16050	-751.88192	789.51072	1494.49486	-658.59980	788.78976	1490.99286	-312.26939	857.58574	1481.75493	-461.97582	731.99631	1527.99750	-490.16453	857.76638	1453.84893	-637.26626	733.64976	1441.35225	-677.59254	852.68112	1459.21653	-336.83233	721.85176	1438.20300	-309.43914	842.27855	1442.84662	-201.91051	815.37796	1385.33685	-175.09100	899.62096	1423.71055	-138.83512	943.12809	1402.35094	-80.27584	946.04102	1321.52825	-99.04564	839.50586	1432.23791	-770.12365	856.72549	1381.57974	-817.30696	931.43163	1423.55422	-805.18494	975.87991	1396.71663	-880.13810	954.79533	1321.42012	-858.76601	1064.92570	1413.87627	-120.95386	1179.63456	1379.54873	-174.92887	1186.20543	1383.44166	-103.99464	1102.75586	1400.42883	-842.39115	1195.75291	1347.87064	-767.43482	1213.47979	1372.95062	-830.13486	808.91289	993.97128	-429.36001	823.06891	979.71663	-556.52086	
326	2.71667	890.42771	1030.98235	-613.71081	899.08998	1024.27015	-376.80484	731.78557	1056.00335	-541.26125	729.66982	1053.58356	-442.84470	817.51197	871.82489	-301.90168	880.16181	738.55291	-304.10424	797.71734	612.01616	-313.56684	813.77828	516.37007	-304.40532	801.73177	503.42476	-428.80405	828.80510	850.29964	-683.56430	880.35136	740.94423	-683.29311	804.48310	627.33438	-665.57637	822.90325	519.05034	-669.72226	813.77112	504.11977	-550.92688	839.17468	372.03019	-338.98044	792.64415	329.40540	-268.60557	813.05929	253.96128	-322.16862	741.15356	140.22664	-266.80045	775.96077	124.35831	-345.47855	848.47638	393.84259	-627.02666	792.40324	337.02802	-708.80517	819.38518	229.83676	-655.70505	786.15470	122.37028	-627.46938	761.73674	126.21366	-710.17123	690.10959	105.81754	-302.01434	897.21910	73.39422	-315.93849	874.35913	64.03040	-222.69747	703.86259	107.62950	-672.08600	909.41058	77.85453	-661.72355	891.03145	64.16172	-751.88132	789.48625	1494.48110	-658.63066	788.76530	1490.98701	-312.27616	857.54819	1481.68190	-462.03573	732.00920	1527.92862	-490.21673	857.72894	1453.82977	-637.27621	733.62438	1441.35049	-677.56889	852.67044	1459.22998	-336.79989	721.82131	1438.20307	-309.43890	842.24911	1442.84562	-201.91326	815.35147	1385.33435	-175.08658	899.58989	1423.70245	-138.83147	943.10924	1402.33719	-80.28992	946.02456	1321.52392	-99.05102	839.45660	1432.24016	-770.10736	856.66664	1381.54891	-817.29505	931.40281	1423.54061	-805.20849	975.83879	1396.71419	-880.15425	954.74143	1321.41388	-858.76373	1064.89055	1413.88828	-120.95851	1179.60634	1379.60093	-174.99600	1186.17976	1383.45755	-104.02067	1102.70585	1400.40645	-842.43181	1195.72410	1347.95433	-767.42396	1213.43999	1372.93721	-830.18032	808.88865	993.95203	-429.37000	823.04651	979.71247	-556.53235	
327	2.72500	890.39749	1030.99594	-613.73036	899.05532	1024.25896	-376.80937	731.76236	1055.99393	-541.25679	729.63963	1053.54966	-442.86574	817.41629	871.74355	-301.90688	880.19412	738.68124	-304.03255	797.71513	612.04487	-313.53139	813.78078	516.36454	-304.40739	801.73374	503.42462	-428.80498	828.79080	850.29997	-683.58373	880.35105	740.94095	-683.31883	804.48207	627.33168	-665.57957	822.87925	519.03038	-669.67210	813.73467	504.09428	-550.88825	839.17513	372.01974	-338.98818	792.66795	329.47099	-268.54176	813.05922	253.95577	-322.16589	741.15112	140.21781	-266.81072	775.90957	124.27196	-345.24488	848.45350	393.84183	-627.02557	792.39622	337.02773	-708.80716	819.37156	229.82800	-655.69862	786.14761	122.36891	-627.47039	761.73983	126.20952	-710.17430	690.11422	105.81143	-302.00999	897.22153	73.39269	-315.93901	874.36474	64.03743	-222.70599	703.86121	107.62653	-672.08216	909.40710	77.85479	-661.73876	891.03531	64.15949	-751.87880	789.45953	1494.46365	-658.66013	788.74094	1490.98974	-312.27998	857.51315	1481.65060	-462.06455	732.05461	1527.82084	-490.31281	857.69282	1453.81863	-637.28746	733.59450	1441.34450	-677.54573	852.65349	1459.24085	-336.78835	721.78491	1438.20952	-309.45270	842.22596	1442.84647	-201.92299	815.32250	1385.33319	-175.08790	899.55788	1423.68941	-138.83624	943.08402	1402.32469	-80.30229	946.00692	1321.51831	-99.05943	839.40801	1432.23827	-770.09821	856.60915	1381.55267	-817.29007	931.36767	1423.52690	-805.22745	975.79752	1396.70538	-880.17451	954.68772	1321.40717	-858.76524	1064.85830	1413.90489	-120.95321	1179.58259	1379.63384	-175.08383	1186.14856	1383.45602	-104.06322	1102.65812	1400.38006	-842.47061	1195.69643	1348.03079	-767.42438	1213.40263	1372.92053	-830.20987	808.86393	993.93430	-429.38539	823.02293	979.71084	-556.54949	
328	2.73333	890.36934	1031.00718	-613.74374	899.01871	1024.25797	-376.80885	731.74159	1055.98364	-541.26588	729.60597	1053.54417	-442.86669	817.35334	871.67843	-301.92695	880.22687	738.80585	-303.95826	797.70811	612.03653	-313.54811	813.78871	516.36133	-304.40954	801.73341	503.42494	-428.80602	828.77199	850.29161	-683.60254	880.33609	740.93934	-683.33623	804.47172	627.32646	-665.58146	822.85793	519.02317	-669.65371	813.72322	504.07637	-550.87397	839.17943	372.01451	-338.99184	792.68106	329.46760	-268.55474	813.05967	253.95493	-322.16240	741.14087	140.19528	-266.86349	775.87782	124.21725	-345.10188	848.43030	393.84399	-627.02686	792.38459	337.02743	-708.80287	819.36251	229.82530	-655.70478	786.13177	122.36766	-627.47261	761.74662	126.20737	-710.18094	690.11944	105.80843	-302.00691	897.22373	73.39448	-315.94602	874.36996	64.04652	-222.71176	703.85682	107.62537	-672.07813	909.40339	77.85637	-661.75604	891.03747	64.15582	-751.87612	789.42849	1494.44662	-658.67773	788.71617	1490.99749	-312.27872	857.48596	1481.68395	-462.03161	732.09149	1527.73141	-490.40172	857.65918	1453.81365	-637.29584	733.55526	1441.33290	-677.53637	852.62483	1459.23800	-336.80934	721.74578	1438.21899	-309.46595	842.20824	1442.84660	-201.93577	815.29087	1385.33018	-175.09737	899.52470	1423.67226	-138.86020	943.05219	1402.31597	-80.31156	945.98695	1321.51094	-99.06692	839.36511	1432.22823	-770.10103	856.56070	1381.57880	-817.29773	931.32277	1423.51277	-805.23647	975.75500	1396.69014	-880.19865	954.63882	1321.39599	-858.77802	1064.83210	1413.91635	-120.95044	1179.55231	1379.65194	-175.19011	1186.11597	1383.44511	-104.10720	1102.61578	1400.35587	-842.50226	1195.65709	1348.02901	-767.46285	1213.36753	1372.90174	-830.21926	808.83628	993.92900	-429.39382	822.99632	979.71405	-556.55887	
329	2.74167	890.34258	1031.01301	-613.73780	898.98332	1024.26898	-376.79403	731.71651	1055.97967	-541.28020	729.56811	1053.56850	-442.83765	817.33044	871.64625	-301.94882	880.24346	738.88334	-303.91243	797.70670	612.01942	-313.57380	813.79871	516.35895	-304.41097	801.73139	503.42570	-428.80620	828.74910	850.27770	-683.61301	880.30858	740.94182	-683.33960	804.45189	627.32293	-665.58779	822.83849	519.02553	-669.66719	813.72890	504.07114	-550.87366	839.18560	372.01402	-338.98926	792.67528	329.38245	-268.65292	813.06046	253.95661	-322.16144	741.13031	140.16911	-266.91498	775.89668	124.24375	-345.18970	848.40844	393.84665	-627.03414	792.36761	337.02709	-708.79588	819.35934	229.82853	-655.71989	786.11176	122.36693	-627.47424	761.75130	126.20544	-710.18607	690.12291	105.81112	-302.00363	897.22418	73.39916	-315.95396	874.37264	64.05070	-222.71082	703.85126	107.62451	-672.07806	909.39972	77.86043	-661.76123	891.03497	64.15575	-751.87261	789.39142	1494.43276	-658.68052	788.69080	1491.00357	-312.27277	857.46937	1481.77534	-461.93690	732.07721	1527.70865	-490.43300	857.62635	1453.80811	-637.30307	733.50690	1441.31794	-677.54441	852.58397	1459.21614	-336.85759	721.71036	1438.22680	-309.46082	842.19089	1442.84497	-201.94505	815.25824	1385.32363	-175.11614	899.49030	1423.65385	-138.90449	943.01854	1402.31067	-80.32075	945.96578	1321.50399	-99.06845	839.32635	1432.21176	-770.11140	856.52048	1381.60053	-817.31386	931.27023	1423.49806	-805.23619	975.71073	1396.67154	-880.21895	954.59683	1321.37737	-858.79900	1064.81161	1413.91400	-120.96308	1179.51143	1379.65364	-175.28752	1186.08553	1383.43418	-104.13890	1102.57811	1400.33805	-842.52388	1195.59770	1347.91334	-767.54654	1213.33296	1372.88243	-830.22172	808.80366	993.93956	-429.38406	822.96551	979.72197	-556.54867	
